<mxfile host="app.diagrams.net" modified="2023-12-18T01:24:09.194Z" agent="Mozilla/5.0 (Macintosh; Intel Mac OS X 10_15_7) AppleWebKit/537.36 (KHTML, like Gecko) Chrome/120.0.0.0 Safari/537.36" version="22.1.11" etag="-Pazx64VZssBVIthCxO4" type="github">
  <diagram name="페이지-1" id="77XLGnn0KYIJBFCJpfFv">
    <mxGraphModel>
      <root>
        <mxCell id="0" />
        <mxCell id="1" parent="0" />
      </root>
    </mxGraphModel>
  </diagram>
</mxfile>
